<svg width="20" height="16" viewBox="0 0 20 16" fill="none" xmlns="http://www.w3.org/2000/svg">
<g clip-path="url(#clip0_1_987)">
<g clip-path="url(#clip1_1_987)">
<path d="M18.5 0.5H1.5C0.671573 0.5 0 1.17157 0 2C0 2.82843 0.671573 3.5 1.5 3.5H18.5C19.3284 3.5 20 2.82843 20 2C20 1.17157 19.3284 0.5 18.5 0.5Z" fill="white"/>
<path d="M14.5 6.5H1.5C0.671573 6.5 0 7.17157 0 8C0 8.82843 0.671573 9.5 1.5 9.5H14.5C15.3284 9.5 16 8.82843 16 8C16 7.17157 15.3284 6.5 14.5 6.5Z" fill="white"/>
<path d="M18.5 12.5H1.5C0.671573 12.5 0 13.1716 0 14C0 14.8284 0.671573 15.5 1.5 15.5H18.5C19.3284 15.5 20 14.8284 20 14C20 13.1716 19.3284 12.5 18.5 12.5Z" fill="white"/>
</g>
</g>
<defs>
<clipPath id="clip0_1_987">
<rect width="20" height="15" fill="white" transform="translate(0 0.5)"/>
</clipPath>
<clipPath id="clip1_1_987">
<rect width="20" height="15" fill="white" transform="translate(0 0.5)"/>
</clipPath>
</defs>
</svg>
