<svg width="20" height="19" viewBox="0 0 20 19" fill="none" xmlns="http://www.w3.org/2000/svg">
<g clip-path="url(#clip0_1_372)">
<g clip-path="url(#clip1_1_372)">
<path fill-rule="evenodd" clip-rule="evenodd" d="M9.59612 18.3481C9.70827 18.4454 9.85155 18.4993 10 18.5C10.1462 18.5 10.2891 18.4471 10.4039 18.3481C10.6401 18.1456 16.1875 13.3216 16.1875 7.12625C16.1875 5.369 15.535 3.68375 14.3763 2.44063C13.2141 1.19863 11.6402 0.5 10 0.5C8.35975 0.5 6.78475 1.1975 5.62375 2.44063C4.465 3.68375 3.8125 5.369 3.8125 7.12625C3.8125 13.3216 9.35987 18.1456 9.59612 18.3481ZM10 9.65413C10.7935 9.65174 11.5535 9.33433 12.113 8.77168C12.6725 8.20903 12.9856 7.44722 12.9835 6.65375C12.9848 6.26067 12.9087 5.87119 12.7595 5.50754C12.6103 5.14389 12.3908 4.8132 12.1138 4.53437C11.8367 4.25553 11.5074 4.03401 11.1448 3.88246C10.7821 3.73091 10.3931 3.65231 10 3.65113C9.60692 3.65231 9.21793 3.73091 8.85524 3.88246C8.49255 4.03401 8.16327 4.25553 7.88622 4.53437C7.60916 4.8132 7.38975 5.14389 7.24052 5.50754C7.09129 5.87119 7.01517 6.26067 7.0165 6.65375C7.01441 7.44722 7.32753 8.20903 7.88701 8.77168C8.4465 9.33433 9.20653 9.65174 10 9.65413Z" fill="white"/>
</g>
</g>
<defs>
<clipPath id="clip0_1_372">
<rect width="20" height="18" fill="white" transform="translate(0 0.5)"/>
</clipPath>
<clipPath id="clip1_1_372">
<rect width="12.375" height="18" fill="white" transform="translate(3.8125 0.5)"/>
</clipPath>
</defs>
</svg>
