<svg width="9" height="17" viewBox="0 0 9 17" fill="none" xmlns="http://www.w3.org/2000/svg">
<g clip-path="url(#clip0_1_1117)">
<g clip-path="url(#clip1_1_1117)">
<path d="M1.63517 15.512C1.37044 15.512 1.11371 15.4233 0.910074 15.2611C0.796033 15.1706 0.701104 15.0584 0.630802 14.9309C0.561792 14.8052 0.51911 14.6667 0.505357 14.5239C0.491603 14.3811 0.507065 14.237 0.550802 14.1004C0.595165 13.9636 0.667165 13.8364 0.762438 13.7265L5.83953 7.89237L0.943529 2.04728C0.849945 1.93667 0.779689 1.80828 0.736984 1.66982C0.694546 1.53246 0.680845 1.38783 0.696736 1.24494C0.712626 1.10205 0.757767 0.963962 0.829347 0.839278C0.901121 0.712145 0.997845 0.600826 1.11371 0.512005C1.2308 0.413096 1.36826 0.338187 1.51735 0.292368C1.66623 0.246873 1.82266 0.231353 1.97758 0.246708C2.1325 0.262063 2.28284 0.307987 2.41989 0.381823C2.55589 0.455278 2.67444 0.555641 2.76898 0.675641L8.24171 7.20655C8.40898 7.40146 8.49989 7.64582 8.49989 7.89746C8.49989 8.14982 8.40898 8.39419 8.24244 8.58837L2.57553 15.1193C2.46054 15.2523 2.31611 15.3566 2.15371 15.424C1.98974 15.4921 1.8124 15.5227 1.63517 15.512Z" fill="#8F9498"/>
</g>
</g>
<defs>
<clipPath id="clip0_1_1117">
<rect width="9" height="16" fill="white" transform="translate(0 0.160034)"/>
</clipPath>
<clipPath id="clip1_1_1117">
<rect width="8" height="16" fill="white" transform="translate(0.5 0.160034)"/>
</clipPath>
</defs>
</svg>
