<svg width="9" height="17" viewBox="0 0 9 17" fill="none" xmlns="http://www.w3.org/2000/svg">
<g clip-path="url(#clip0_1_1112)">
<g clip-path="url(#clip1_1_1112)">
<path d="M7.36483 0.808064C7.62956 0.808064 7.88629 0.896791 8.08993 1.05897C8.20397 1.14945 8.2989 1.26168 8.3692 1.38916C8.43821 1.51492 8.48089 1.65341 8.49464 1.7962C8.5084 1.93899 8.49293 2.08308 8.4492 2.2197C8.40483 2.35643 8.33283 2.4837 8.23756 2.59352L3.16047 8.4277L8.05647 14.2728C8.15005 14.3834 8.22031 14.5118 8.26302 14.6502C8.30545 14.7876 8.31915 14.9322 8.30326 15.0751C8.28737 15.218 8.24223 15.3561 8.17065 15.4808C8.09888 15.6079 8.00216 15.7192 7.88629 15.8081C7.7692 15.907 7.63174 15.9819 7.48265 16.0277C7.33377 16.0732 7.17734 16.0887 7.02242 16.0734C6.8675 16.058 6.71716 16.0121 6.58011 15.9382C6.44411 15.8648 6.32556 15.7644 6.23102 15.6444L0.758289 9.11352C0.591016 8.91861 0.500107 8.67425 0.500107 8.42261C0.500107 8.17025 0.591016 7.92588 0.757562 7.7317L6.42447 1.20079C6.53946 1.06779 6.68389 0.963446 6.84629 0.896064C7.01026 0.827961 7.1876 0.797389 7.36483 0.808064Z" fill="#8F9498"/>
</g>
</g>
<defs>
<clipPath id="clip0_1_1112">
<rect width="9" height="16" fill="white" transform="matrix(-1 0 0 -1 9 16.16)"/>
</clipPath>
<clipPath id="clip1_1_1112">
<rect width="8" height="16" fill="white" transform="matrix(-1 0 0 -1 8.5 16.16)"/>
</clipPath>
</defs>
</svg>
